<svg width="438" height="288" viewBox="0 0 438 288" fill="none" xmlns="http://www.w3.org/2000/svg">
<path d="M0 161.88L31.25 179.598V143.192L0 161.88Z" fill="#D0A5E4"/>
<path d="M31.25 107.759L0 125.476H62.5L31.25 107.759Z" fill="#702B91"/>
<path d="M31.25 179.598L62.5 161.88V125.476L31.25 179.598Z" fill="#341443"/>
<path d="M0 125.476V161.88L31.25 143.193L0 125.476Z" fill="#D0A5E4"/>
<path d="M0 125.476L31.25 143.193L62.5 125.476H0Z" fill="#702B91"/>
<path d="M31.25 143.193V179.598L62.5 125.476L31.25 143.193Z" fill="#341443"/>
<path d="M62.5 180.082L125 215.517V142.705L62.5 180.082Z" fill="#D0A5E4"/>
<path d="M125 71.8389L62.5 107.273H187.5L125 71.8389Z" fill="#702B91"/>
<path d="M125 215.517L187.5 180.082V107.273L125 215.517Z" fill="#341443"/>
<path d="M62.5 107.273V180.082L125 142.707L62.5 107.273Z" fill="#D0A5E4"/>
<path d="M62.5 107.273L125 142.707L187.5 107.273H62.5Z" fill="#702B91"/>
<path d="M125 142.707V215.517L187.5 107.273L125 142.707Z" fill="#341443"/>
<path d="M187.5 216.487L312.5 287.356V141.732L187.5 216.487Z" fill="#D0A5E4"/>
<path d="M312.5 0L187.5 70.8688H437.5L312.5 0Z" fill="#702B91"/>
<path d="M312.5 287.356L437.5 216.487V70.8682L312.5 287.356Z" fill="#341443"/>
<path d="M187.5 70.8682V216.487L312.5 141.737L187.5 70.8682Z" fill="#D0A5E4"/>
<path d="M187.5 70.8682L312.5 141.737L437.5 70.8682H187.5Z" fill="#702B91"/>
<path d="M312.5 141.737V287.356L437.5 70.8682L312.5 141.737Z" fill="#341443"/>
</svg>
