<svg width="222" height="57" viewBox="0 0 222 57" fill="none" xmlns="http://www.w3.org/2000/svg">
<mask id="path-1-inside-1_32_1738" fill="white">
<path d="M0 0H221.95V56.34H0V0Z"/>
</mask>
<path d="M0 56.34H4V0H0H-4V56.34H0Z" fill="#702B91" mask="url(#path-1-inside-1_32_1738)"/>
<path d="M23.25 20.46V15.89C23.25 14.67 22.57 13.94 21.1 13.94C20.12 13.94 19.46 14.21 18.99 14.54C19.24 14.79 19.61 15.22 19.61 15.95V21.56C19.61 23.16 18.97 23.89 17.52 23.89C17.13 23.89 16.74 23.85 16.14 23.68L16 22.43C16.23 22.47 16.53 22.51 16.67 22.51C16.96 22.51 17.17 22.41 17.17 21.68V15.86C17.17 14.98 16.33 14.49 16.33 14.49V14.22C17.01 13.43 19.12 12.22 21.1 12.22C23.96 12.22 25.69 13.55 25.69 15.89V20.46C25.69 22.5 25.69 22.96 25.81 23.86C25.46 23.85 24.78 23.84 24.49 23.84C24.19 23.84 23.47 23.85 23.13 23.86C23.25 22.96 23.25 22.39 23.25 20.46Z" fill="black"/>
<path d="M33.6256 15.69V20.45C33.6256 22.49 33.6256 22.85 33.8156 23.85C33.4756 23.84 32.7056 23.83 32.4256 23.83C32.1256 23.83 31.3456 23.84 30.9856 23.85C31.1856 22.85 31.1856 22.38 31.1856 20.45V15.66C31.1856 14.42 30.5056 13.95 29.7156 13.95C28.7156 13.95 28.1156 14.36 27.7456 14.78H27.4356C27.3956 14.42 27.2256 13.91 26.7156 13.05C27.4056 12.64 28.6156 12.25 29.6956 12.25C32.2756 12.25 33.6256 13.33 33.6256 15.69Z" fill="black"/>
<path d="M44.9734 23.85C44.6334 23.84 43.9434 23.83 43.6434 23.83C43.3434 23.83 42.6534 23.84 42.3034 23.85C42.3934 23.11 42.4334 22.43 42.4334 20.46V16.3C42.4334 14.7 41.7434 13.96 40.3834 13.96C39.0534 13.96 38.3034 14.7 38.3034 16.3V18.47L38.3334 18.49C38.8134 17.69 39.5034 17.18 40.4834 17.18C40.7734 17.18 41.1234 17.23 41.4434 17.44C41.2034 17.95 41.1834 18.88 41.1834 19.48L40.9534 19.64C40.7534 19.42 40.4834 19.28 40.0434 19.28C38.9734 19.28 38.3034 19.91 38.3034 21.19C38.3034 22.07 38.3134 23.06 38.4234 23.85C38.1634 23.84 37.5134 23.82 37.1234 23.82C36.7534 23.82 36.0434 23.84 35.7634 23.85C35.8534 23.11 35.8834 22.43 35.8834 20.46V16.4C35.8834 13.76 37.7734 12.24 40.3834 12.24C43.0134 12.24 44.8534 13.76 44.8534 16.42V20.46C44.8534 22.43 44.8834 23.11 44.9734 23.85Z" fill="black"/>
<path d="M49.4658 22.28C51.0358 22.28 51.6858 21.31 51.6858 18.32C51.6858 14.92 50.9058 13.97 49.5658 13.97C48.4858 13.97 47.7358 14.43 47.3258 14.9H47.0358C46.9258 14.43 46.6058 13.82 46.3458 13.18C47.0558 12.75 48.2758 12.27 49.6058 12.27C52.8458 12.27 54.2058 14.09 54.2058 17.95C54.2058 22.31 52.7458 23.98 49.4258 23.98C48.5258 23.98 47.4858 23.67 46.9058 23.32C47.2458 22.49 47.4058 22.04 47.4658 21.7H47.7458C47.9358 21.94 48.7758 22.28 49.4658 22.28Z" fill="black"/>
<path d="M52.8264 10.56C52.1364 10.56 50.7564 10.54 49.9464 10.54C49.2864 10.54 47.5864 10.58 46.9364 10.58C46.4264 10.58 46.0864 10.6 45.8164 10.68L45.7864 10.64C45.9664 10.18 46.2864 9.37 46.3864 9.04C47.0164 8.97 49.1464 8.94 49.9464 8.94C51.0764 8.94 52.5964 8.96 53.7364 9.01C53.7164 9.17 53.7064 9.76 53.7064 9.92C53.7064 10.07 53.7264 10.46 53.7464 10.61C53.7464 10.61 53.1864 10.56 52.8264 10.56Z" fill="black"/>
<path d="M64.0864 17.74V20.4C64.0864 22.91 62.5664 23.98 60.0264 23.98C57.4664 23.98 55.9464 22.84 55.9464 20.4V18.89C55.9464 16.6 57.7664 15.55 57.7664 14.36C57.7664 14.05 57.6164 13.83 57.1764 13.83C56.8364 13.83 56.5464 14.04 56.3864 14.22H56.1764C56.1364 14.06 55.9864 13.46 55.5564 12.73C55.9864 12.51 56.7564 12.25 57.5864 12.25C59.2164 12.25 59.9664 13.05 59.9664 14.24C59.9664 16.11 58.3664 16.95 58.3664 18.9V20.4C58.3664 21.81 58.8864 22.28 60.0264 22.28C61.1864 22.28 61.6664 21.81 61.6664 20.4V17.54C61.6664 16.51 61.3664 16.16 60.7364 16.16C60.5864 16.16 60.4564 16.17 60.3364 16.18C60.3864 15.7 60.3864 15.43 60.3864 15.27V14.67C61.5864 14.65 61.8964 14.11 61.8964 12.04C62.3564 12.07 62.8264 12.07 63.0264 12.07C63.3964 12.07 63.9564 12.07 64.3964 12C64.3964 13.87 63.8364 14.86 62.6264 15.31C63.4864 15.63 64.0864 16.22 64.0864 17.74Z" fill="black"/>
<path d="M72.1998 15.69V20.45C72.1998 22.49 72.1998 22.85 72.3898 23.85C72.0498 23.84 71.2798 23.83 70.9998 23.83C70.6998 23.83 69.9198 23.84 69.5598 23.85C69.7598 22.85 69.7598 22.38 69.7598 20.45V15.66C69.7598 14.42 69.0798 13.95 68.2898 13.95C67.2898 13.95 66.6898 14.36 66.3198 14.78H66.0098C65.9698 14.42 65.7998 13.91 65.2898 13.05C65.9798 12.64 67.1898 12.25 68.2698 12.25C70.8498 12.25 72.1998 13.33 72.1998 15.69Z" fill="black"/>
<path d="M83.1277 12.4C83.0077 13.29 83.0077 13.76 83.0077 15.81V20.4C83.0077 22.44 81.5677 23.98 78.6877 23.98C75.8077 23.98 74.3577 22.44 74.3577 20.4V15.81C74.3577 13.76 74.3577 13.29 74.2377 12.4C74.5577 12.41 75.2877 12.42 75.5877 12.42C75.8877 12.42 76.6177 12.41 76.9377 12.4C76.8177 13.29 76.8177 13.76 76.8177 15.81V20.4C76.8177 21.55 77.4377 22.28 78.6877 22.28C79.9377 22.28 80.5577 21.55 80.5577 20.4V15.81C80.5577 13.76 80.5477 13.29 80.4277 12.4C80.7477 12.41 81.4777 12.42 81.7777 12.42C82.0777 12.42 82.8077 12.41 83.1277 12.4Z" fill="black"/>
<path d="M88.1303 22.28C89.2703 22.28 89.7803 21.57 89.7803 20.59C89.7803 19.49 88.8603 19.2 87.9003 18.89C86.3503 18.39 84.8603 17.46 84.8603 15.49C84.8603 13.65 86.5703 12.26 88.8903 12.26C90.1603 12.26 91.4403 12.76 92.0603 13.25C91.5703 14.22 91.3903 14.4 91.2003 14.95H90.8903C90.6503 14.34 89.8703 13.96 88.9603 13.96C87.8403 13.96 87.2603 14.55 87.2603 15.38C87.2603 16.62 88.2503 16.94 89.2603 17.26C90.6603 17.71 92.2003 18.23 92.2003 20.41C92.2003 22.79 90.5203 23.98 88.0203 23.98C86.7303 23.98 85.4703 23.44 84.6703 22.81C85.1503 21.98 85.4503 21.55 85.5903 21.06H85.8703C86.3203 21.75 86.9903 22.28 88.1303 22.28Z" fill="black"/>
<path d="M97.0561 22.28C98.1961 22.28 98.7061 21.57 98.7061 20.59C98.7061 19.49 97.7861 19.2 96.8261 18.89C95.2761 18.39 93.7861 17.46 93.7861 15.49C93.7861 13.65 95.4961 12.26 97.8161 12.26C99.0861 12.26 100.366 12.76 100.986 13.25C100.496 14.22 100.316 14.4 100.126 14.95H99.8161C99.5761 14.34 98.7961 13.96 97.8861 13.96C96.7661 13.96 96.1861 14.55 96.1861 15.38C96.1861 16.62 97.1761 16.94 98.1861 17.26C99.5861 17.71 101.126 18.23 101.126 20.41C101.126 22.79 99.4461 23.98 96.9461 23.98C95.6561 23.98 94.3961 23.44 93.5961 22.81C94.0761 21.98 94.3761 21.55 94.5161 21.06H94.7961C95.2461 21.75 95.9161 22.28 97.0561 22.28Z" fill="black"/>
<path d="M107.212 12.22C110.112 12.22 111.432 13.63 111.432 15.97V20.44C111.432 21.69 111.722 22.24 112.682 22.24C113.682 22.24 114.842 21.31 114.842 19.34V15.81C114.842 13.76 114.842 13.29 114.722 12.4C115.042 12.41 115.752 12.43 116.052 12.43C116.352 12.43 117.082 12.41 117.402 12.4C117.282 13.29 117.282 13.76 117.282 15.81V20.45C117.282 22.38 117.282 22.95 117.412 23.85C117.062 23.84 116.342 23.83 116.052 23.83C115.762 23.83 115.142 23.84 114.802 23.85C114.802 23.85 114.842 22.98 114.842 22.52C114.392 23.38 113.382 23.98 112.232 23.98C109.792 23.98 109.012 22.62 109.012 20.25V15.97C109.012 14.76 108.622 13.94 107.212 13.94C106.222 13.94 105.552 14.22 105.032 14.56C105.262 14.81 105.562 15.24 105.562 15.95V21.28C105.562 22.33 105.672 22.51 106.022 22.51C106.302 22.51 106.542 22.49 106.872 22.44L106.652 23.65C106.042 23.82 105.652 23.89 105.272 23.89C103.822 23.89 103.162 23.06 103.162 21.46V15.75C103.162 14.86 102.412 14.39 102.412 14.39V14.1C103.332 13.32 105.242 12.22 107.212 12.22Z" fill="black"/>
<path d="M125.227 15.69V20.45C125.227 22.49 125.227 22.85 125.417 23.85C125.077 23.84 124.307 23.83 124.027 23.83C123.727 23.83 122.947 23.84 122.587 23.85C122.787 22.85 122.787 22.38 122.787 20.45V15.66C122.787 14.42 122.107 13.95 121.317 13.95C120.317 13.95 119.717 14.36 119.347 14.78H119.037C118.997 14.42 118.827 13.91 118.317 13.05C119.007 12.64 120.217 12.25 121.297 12.25C123.877 12.25 125.227 13.33 125.227 15.69Z" fill="black"/>
<path d="M130.435 22.28C131.575 22.28 132.085 21.57 132.085 20.59C132.085 19.49 131.165 19.2 130.205 18.89C128.655 18.39 127.165 17.46 127.165 15.49C127.165 13.65 128.875 12.26 131.195 12.26C132.465 12.26 133.745 12.76 134.365 13.25C133.875 14.22 133.695 14.4 133.505 14.95H133.195C132.955 14.34 132.175 13.96 131.265 13.96C130.145 13.96 129.565 14.55 129.565 15.38C129.565 16.62 130.555 16.94 131.565 17.26C132.965 17.71 134.505 18.23 134.505 20.41C134.505 22.79 132.825 23.98 130.325 23.98C129.035 23.98 127.775 23.44 126.975 22.81C127.455 21.98 127.755 21.55 127.895 21.06H128.175C128.625 21.75 129.295 22.28 130.435 22.28Z" fill="black"/>
<path d="M130.971 8.02C130.851 8.31 130.781 8.53 130.781 8.69C130.781 8.96 131.001 9.02 131.361 9.02C131.921 9.03 132.181 9.04 132.691 9.04C133.771 9.04 135.351 9.03 136.351 8.9L136.391 8.94C136.271 9.24 135.941 10.25 135.821 10.58C135.161 10.65 133.521 10.68 132.691 10.68C131.861 10.68 130.701 10.68 130.171 10.59C129.361 10.45 128.781 9.87 128.781 9.1C128.781 8.68 128.901 8.26 129.081 8C129.421 8.03 130.521 8.05 130.971 8.02Z" fill="black"/>
<path d="M142.591 20.45V16.01C142.591 14.77 142.011 13.96 140.601 13.96C139.591 13.96 138.851 14.34 138.361 14.72V14.76C138.581 14.99 138.871 15.46 138.871 16.11V20.45C138.871 22.49 138.871 22.95 138.991 23.85C138.641 23.84 137.931 23.83 137.641 23.83C137.341 23.83 136.651 23.84 136.311 23.85C136.431 22.95 136.431 22.38 136.431 20.45V15.88C136.431 15.03 136.111 14.63 135.801 14.43V14.27C136.841 13.16 138.621 12.22 140.601 12.22C143.301 12.22 145.031 13.67 145.031 16.01V20.45C145.031 22.49 145.031 22.95 145.151 23.85C144.801 23.84 144.121 23.83 143.831 23.83C143.531 23.83 142.811 23.84 142.471 23.85C142.591 22.95 142.591 22.38 142.591 20.45Z" fill="black"/>
<path d="M155.882 12.4C155.762 13.29 155.762 13.76 155.762 15.81V16.69L156.662 16.66C156.652 16.79 156.632 17.37 156.632 17.62C156.632 17.8 156.632 18.01 156.672 18.42C156.672 18.42 156.252 18.4 155.762 18.39V20.4C155.762 22.44 154.322 23.98 151.442 23.98C148.562 23.98 147.112 22.44 147.112 20.4V15.81C147.112 13.76 147.112 13.29 146.992 12.4C147.312 12.41 148.042 12.42 148.342 12.42C148.642 12.42 149.372 12.41 149.692 12.4C149.572 13.29 149.572 13.76 149.572 15.81V20.4C149.572 21.55 150.192 22.28 151.442 22.28C152.692 22.28 153.312 21.55 153.312 20.4V18.37C152.412 18.38 151.372 18.4 151.082 18.42C151.082 18.37 151.092 17.8 151.092 17.54C151.092 17.28 151.082 16.7 151.082 16.63C151.202 16.65 152.172 16.69 153.312 16.71V15.81C153.312 13.76 153.302 13.29 153.182 12.4C153.502 12.41 154.232 12.42 154.532 12.42C154.832 12.42 155.562 12.41 155.882 12.4Z" fill="black"/>
<path d="M167.161 23.85C166.821 23.84 166.131 23.83 165.831 23.83C165.531 23.83 164.841 23.84 164.491 23.85C164.581 23.11 164.621 22.43 164.621 20.46V16.1C164.621 14.77 163.931 13.96 162.571 13.96C161.241 13.96 160.491 14.77 160.491 16.1V18.47L160.521 18.49C161.001 17.69 161.691 17.18 162.671 17.18C162.961 17.18 163.311 17.23 163.631 17.44C163.391 17.95 163.371 18.88 163.371 19.48L163.141 19.64C162.941 19.42 162.671 19.28 162.231 19.28C161.161 19.28 160.491 19.91 160.491 21.19C160.491 22.07 160.501 23.06 160.611 23.85C160.351 23.84 159.701 23.82 159.311 23.82C158.941 23.82 158.231 23.84 157.951 23.85C158.041 23.11 158.071 22.43 158.071 20.46V16.1C158.071 14 159.691 12.24 162.571 12.24C163.091 12.24 163.571 12.3 164.001 12.41C165.121 12.32 166.391 11.89 167.341 11.44L167.491 11.52C167.421 11.85 167.421 12.78 167.421 13.54C167.051 13.62 166.621 13.68 166.201 13.71C166.751 14.38 167.041 15.22 167.041 16.12V20.46C167.041 22.43 167.071 23.11 167.161 23.85Z" fill="black"/>
<path d="M174.954 15.69V20.45C174.954 22.49 174.954 22.85 175.144 23.85C174.804 23.84 174.034 23.83 173.754 23.83C173.454 23.83 172.674 23.84 172.314 23.85C172.514 22.85 172.514 22.38 172.514 20.45V15.66C172.514 14.42 171.834 13.95 171.044 13.95C170.044 13.95 169.444 14.36 169.074 14.78H168.764C168.724 14.42 168.554 13.91 168.044 13.05C168.734 12.64 169.944 12.25 171.024 12.25C173.604 12.25 174.954 13.33 174.954 15.69Z" fill="black"/>
<path d="M182.762 20.45V18.76H181.432C179.922 18.76 179.252 19.4 179.252 20.57C179.252 21.72 179.522 22.28 180.182 22.28C180.612 22.28 180.842 22.11 181.012 21.89H181.292C181.342 22.24 181.492 22.51 181.872 23.49C181.292 23.8 180.872 24 179.912 24C177.832 24 176.752 22.63 176.752 20.7C176.752 18.44 178.382 17.05 181.522 17.05H182.762V15.83C182.762 14.57 182.192 13.98 180.892 13.98C179.312 13.98 178.632 14.45 178.142 14.93H177.802C177.722 14.56 177.562 14.2 177.182 13.2C177.992 12.77 179.432 12.25 180.862 12.25C181.462 12.25 182.002 12.3 182.472 12.4C183.582 12.31 184.832 11.88 185.762 11.44L185.912 11.52C185.842 11.85 185.842 12.78 185.842 13.54C185.472 13.62 185.042 13.68 184.612 13.71C185.002 14.31 185.202 15.1 185.202 16.1V20.45C185.202 22.49 185.202 22.95 185.322 23.85C184.972 23.84 184.282 23.83 183.992 23.83C183.692 23.83 182.982 23.84 182.642 23.85C182.762 22.95 182.762 22.38 182.762 20.45Z" fill="black"/>
<path d="M190.059 15.16V21.77C190.759 21.34 191.339 20.5 191.339 19.2C191.339 18.57 191.169 18.29 190.909 18.07L190.969 17.89C191.679 17.89 192.129 17.6 192.969 17.24C193.309 17.58 193.479 18.05 193.479 18.6C193.479 20.67 192.179 22.54 189.199 23.85C189.009 23.84 188.719 23.83 188.529 23.83C188.319 23.83 187.709 23.86 187.519 23.87C187.639 22.98 187.639 22.4 187.639 20.46V15.11C187.639 13.29 188.679 12.25 190.249 12.25C191.239 12.25 191.839 12.63 192.199 13.1C192.549 12.63 193.149 12.25 194.149 12.25C195.719 12.25 196.749 13.29 196.749 15.11V20.46C196.749 22.43 196.779 23.11 196.869 23.85C196.529 23.84 195.839 23.83 195.539 23.83C195.239 23.83 194.539 23.84 194.189 23.85C194.279 23.11 194.329 22.43 194.329 20.46V15.16C194.329 14.3 193.909 14.03 193.479 14.03C193.009 14.03 192.629 14.19 192.339 14.72H192.059C191.749 14.19 191.389 14.03 190.929 14.03C190.489 14.03 190.059 14.3 190.059 15.16Z" fill="black"/>
<path d="M201.88 22.28C203.02 22.28 203.53 21.57 203.53 20.59C203.53 19.49 202.61 19.2 201.65 18.89C200.1 18.39 198.61 17.46 198.61 15.49C198.61 13.65 200.32 12.26 202.64 12.26C203.91 12.26 205.19 12.76 205.81 13.25C205.32 14.22 205.14 14.4 204.95 14.95H204.64C204.4 14.34 203.62 13.96 202.71 13.96C201.59 13.96 201.01 14.55 201.01 15.38C201.01 16.62 202 16.94 203.01 17.26C204.41 17.71 205.95 18.23 205.95 20.41C205.95 22.79 204.27 23.98 201.77 23.98C200.48 23.98 199.22 23.44 198.42 22.81C198.9 21.98 199.2 21.55 199.34 21.06H199.62C200.07 21.75 200.74 22.28 201.88 22.28Z" fill="black"/>
<path d="M205.426 10H204.246C203.716 10 203.586 10.14 203.586 10.55C203.586 10.8 203.616 10.87 203.646 11.08C203.476 11.06 202.736 11.06 202.566 11.06C202.376 11.06 201.686 11.06 201.516 11.08C201.516 11.08 201.416 10.66 201.416 10.22C201.416 8.95 202.126 8.34 203.876 8.34H204.956C205.626 8.34 205.716 8.29 205.786 8.26L205.846 8.34C205.746 8.93 205.496 9.54 205.426 10Z" fill="black"/>
<path d="M17.744 42.789V43.86C18.094 44.049 18.619 44.126 18.927 44.126C19.984 44.126 20.586 43.601 20.586 40.815C20.586 38.183 19.942 37.623 18.64 37.623C17.751 37.623 17.268 37.931 16.918 38.309H16.792C16.771 38.169 16.673 37.966 16.449 37.35C16.883 37.105 17.877 36.811 18.612 36.811C20.733 36.811 21.762 37.77 21.762 40.738C21.762 43.895 20.943 44.945 18.885 44.945C18.143 44.945 17.037 44.602 16.54 44.343C16.582 43.93 16.61 43.559 16.61 42.789C16.61 41.522 16.603 41.711 16.547 40.444H18.843C18.829 40.57 18.829 40.738 18.829 40.871C18.829 40.99 18.843 41.221 18.85 41.34C18.563 41.291 17.933 41.27 17.793 41.27C17.793 41.27 17.744 41.585 17.744 42.789Z" fill="black"/>
<path d="M19.1599 33.976C19.0689 34.207 19.0339 34.375 19.0339 34.536C19.0339 34.732 19.1879 34.795 19.4329 34.795C19.8319 34.802 20.0909 34.809 20.4479 34.809C20.9309 34.809 21.5959 34.781 22.0719 34.781C22.4499 34.781 22.6949 34.76 22.8979 34.704L22.9189 34.732C22.8349 34.956 22.7159 35.313 22.6249 35.558C22.1629 35.607 21.0359 35.628 20.4479 35.628C19.8599 35.628 19.3699 35.628 18.9919 35.572C18.4389 35.495 18.0889 35.159 18.0889 34.613C18.0889 34.361 18.1379 34.095 18.2289 33.962C18.4669 33.983 18.9149 33.997 19.1599 33.976Z" fill="black"/>
<path d="M27.7839 42.579V39.233C27.7839 38.211 27.2799 37.602 26.0479 37.602C25.1379 37.602 24.5429 37.91 24.1229 38.26V38.288C24.1229 38.288 24.5289 38.54 24.5289 39.31V42.579C24.5289 44.084 24.5289 44.357 24.6199 44.84C24.1369 44.826 23.7869 44.826 23.2969 44.84C23.3809 44.357 23.3809 44.007 23.3809 42.579V39.205C23.3809 38.47 22.9049 38.12 22.9049 38.12V38.064C23.5279 37.441 24.7739 36.762 26.0479 36.762C27.8889 36.762 28.9319 37.658 28.9319 39.233V42.579C28.9319 44.084 28.9319 44.357 29.0159 44.84C28.5399 44.826 28.1899 44.826 27.6929 44.84C27.7839 44.357 27.7839 44.007 27.7839 42.579Z" fill="black"/>
<path d="M35.1898 39.975V39.184C35.1898 37.672 35.1828 37.399 35.1058 36.916C35.5888 36.93 35.9388 36.93 36.4288 36.916C36.3448 37.399 36.3447 37.749 36.3377 39.184V39.968L36.8768 39.947C36.8698 40.115 36.8628 40.591 36.8768 40.78L36.3377 40.759V42.537C36.3377 43.958 35.4277 44.945 33.6217 44.945C31.8017 44.945 30.8708 43.916 30.8708 42.537V39.184C30.8708 37.672 30.8707 37.399 30.7867 36.916C31.2627 36.93 31.6198 36.93 32.1098 36.916C32.0188 37.399 32.0187 37.749 32.0187 39.184V42.537C32.0187 43.524 32.5507 44.126 33.6217 44.126C34.6927 44.126 35.1898 43.524 35.1898 42.537V40.752C34.8958 40.752 33.6847 40.752 33.2997 40.78C33.3067 40.703 33.3067 40.031 33.2997 39.933C33.7407 39.961 34.9798 39.975 35.1898 39.975Z" fill="black"/>
<path d="M40.0822 44.133C40.9922 44.133 41.4332 43.503 41.4332 42.677C41.4332 40.605 37.9682 41.935 37.9682 38.953C37.9682 37.609 39.0252 36.804 40.5862 36.804C41.2722 36.804 42.0492 37.098 42.3992 37.364C42.1262 37.931 42.0002 38.106 41.9372 38.337H41.7762C41.6082 37.889 41.1252 37.623 40.5022 37.623C39.6272 37.623 39.1022 38.127 39.1022 38.869C39.1022 41.081 42.5672 39.716 42.5672 42.544C42.5672 44.147 41.5102 44.945 39.9282 44.945C39.1092 44.945 38.3672 44.623 37.9052 44.252C38.0732 43.839 38.3182 43.426 38.3462 43.244H38.5072C38.8222 43.755 39.3542 44.133 40.0822 44.133Z" fill="black"/>
<path d="M48.7385 42.579V39.261C48.7385 38.274 48.1015 37.574 47.0165 37.574C45.9455 37.574 45.2805 38.274 45.2805 39.261V40.339C45.2805 40.857 45.2665 41.445 45.2665 41.445L45.2945 41.459C45.7495 40.598 46.3095 40.241 47.0165 40.241C47.1915 40.241 47.3665 40.255 47.5625 40.325C47.4575 40.563 47.4575 41.046 47.4575 41.445L47.3525 41.515C47.2545 41.403 47.0025 41.284 46.7085 41.284C45.7705 41.284 45.2805 42.033 45.2805 43.181C45.2805 43.832 45.3015 44.357 45.3925 44.84C44.9165 44.826 44.5385 44.826 44.0485 44.84C44.1325 44.357 44.1325 44.007 44.1325 42.579V39.261C44.1325 37.882 45.2105 36.72 47.0165 36.72C47.5275 36.72 47.9755 36.811 48.3605 36.979C48.9555 36.944 49.7185 36.664 50.2995 36.37L50.3345 36.412C50.2575 36.608 50.2435 36.937 50.2295 37.434C49.9355 37.497 49.5715 37.553 49.2425 37.588C49.6625 38.036 49.8865 38.631 49.8865 39.275V42.579C49.8865 44.084 49.8865 44.357 49.9705 44.84C49.4945 44.826 49.1445 44.826 48.6475 44.84C48.7385 44.357 48.7385 44.007 48.7385 42.579Z" fill="black"/>
<path d="M54.9777 39.1V42.579C54.9777 44.084 54.9777 44.357 55.0687 44.84C54.5927 44.826 54.2497 44.826 53.7597 44.84C53.8507 44.357 53.8507 44.007 53.8507 42.579V39.079C53.8507 38.015 53.4237 37.609 52.6187 37.609C51.9327 37.609 51.3727 37.994 51.1627 38.211H51.0647C51.0507 38.071 50.9947 37.861 50.7707 37.252C51.1767 37.021 51.9747 36.797 52.6677 36.797C54.1377 36.797 54.9777 37.455 54.9777 39.1Z" fill="black"/>
<path d="M60.8917 42.579V41.151H59.4637C58.2107 41.151 57.6997 41.662 57.6997 42.67C57.6997 43.79 58.0777 44.133 58.7917 44.133C59.0577 44.133 59.4147 44.007 59.5407 43.853H59.7017C59.7227 43.986 59.8137 44.182 60.0027 44.714C59.7227 44.861 59.1417 44.959 58.6237 44.959C57.4337 44.959 56.5377 44.168 56.5377 42.761C56.5377 41.256 57.5177 40.339 59.5197 40.339H60.8917V39.149C60.8917 38.127 60.3737 37.63 59.3027 37.63C58.2107 37.63 57.5317 38.071 57.3217 38.281H57.1467C57.1187 38.141 57.0557 37.945 56.8597 37.329C57.2937 37.091 58.5677 36.797 59.2817 36.797C59.7997 36.797 60.2267 36.86 60.5837 36.979C61.1787 36.958 61.9697 36.671 62.5717 36.37L62.5997 36.412C62.5297 36.608 62.5157 36.937 62.4947 37.434C62.2007 37.497 61.8297 37.553 61.5007 37.588C61.8717 38.036 62.0257 38.666 62.0257 39.464V42.579C62.0257 44.084 62.0257 44.357 62.1167 44.84C61.6407 44.826 61.2907 44.826 60.8007 44.84C60.8917 44.357 60.8917 44.007 60.8917 42.579Z" fill="black"/>
<path d="M69.836 38.666V42.579C69.836 44.084 69.836 44.357 69.927 44.84C69.451 44.826 69.094 44.826 68.604 44.84C68.688 44.357 68.688 44.007 68.688 42.579V38.701C68.688 37.91 68.352 37.665 67.883 37.665C67.512 37.665 67.204 37.84 66.966 38.316H66.861C66.616 37.84 66.308 37.665 65.944 37.665C65.475 37.665 65.132 37.91 65.132 38.701V43.741C65.944 43.447 66.49 42.53 66.49 41.543C66.49 41.018 66.294 40.829 66.133 40.682L66.196 40.577C66.686 40.577 67.099 40.325 67.323 40.241C67.435 40.374 67.526 40.766 67.526 41.032C67.526 42.677 66.679 43.951 64.74 44.84C64.481 44.826 64.173 44.826 63.9 44.84C63.984 44.357 63.984 44.007 63.984 42.579V38.666C63.984 37.462 64.67 36.783 65.615 36.783C66.154 36.783 66.665 36.986 66.91 37.511C67.162 36.986 67.666 36.783 68.212 36.783C69.157 36.783 69.836 37.462 69.836 38.666Z" fill="black"/>
<path d="M73.592 44.133C74.502 44.133 74.943 43.503 74.943 42.677C74.943 40.605 71.478 41.935 71.478 38.953C71.478 37.609 72.535 36.804 74.096 36.804C74.782 36.804 75.559 37.098 75.909 37.364C75.636 37.931 75.51 38.106 75.447 38.337H75.286C75.118 37.889 74.635 37.623 74.012 37.623C73.137 37.623 72.612 38.127 72.612 38.869C72.612 41.081 76.077 39.716 76.077 42.544C76.077 44.147 75.02 44.945 73.438 44.945C72.619 44.945 71.877 44.623 71.415 44.252C71.583 43.839 71.828 43.426 71.856 43.244H72.017C72.332 43.755 72.864 44.133 73.592 44.133Z" fill="black"/>
<path d="M75.7802 35.103H74.9402C74.5692 35.103 74.4572 35.222 74.4572 35.467C74.4572 35.642 74.4782 35.761 74.4992 35.908C74.3802 35.894 74.0652 35.894 73.9462 35.894C73.8132 35.894 73.5682 35.894 73.4492 35.908C73.4492 35.908 73.3792 35.656 73.3792 35.362C73.3792 34.725 73.8202 34.291 74.7302 34.291H75.5002C75.8992 34.291 76.0602 34.242 76.0602 34.242L76.0742 34.256C76.0322 34.403 75.8782 34.893 75.7802 35.103Z" fill="black"/>
<path d="M83.3062 40.444L83.7822 44.091C84.6012 44.091 85.1822 43.426 85.1822 42.152V39.842C85.1822 38.211 84.4822 37.658 83.2432 37.658C82.2912 37.658 81.6332 38.099 81.4232 38.351H81.2412C81.2132 38.197 81.1642 38.057 80.9052 37.364C81.3392 37.133 82.2982 36.797 83.2642 36.797C85.2732 36.797 86.3302 37.735 86.3302 39.842V42.271C86.3302 43.72 85.4482 44.84 83.7192 44.84H82.8792C82.8792 44.539 82.8582 44.224 82.7742 43.699L82.3752 41.312C82.1722 41.312 81.6682 41.333 81.3812 41.389C81.3882 41.284 81.3882 41.095 81.3882 40.927V40.444H83.3062Z" fill="black"/>
<path d="M84.2745 48.34C84.2745 47.619 84.2885 47.248 84.2885 46.492C84.1555 46.492 83.6165 46.513 83.3295 46.569C83.3435 46.45 83.3435 46.212 83.3435 46.1V45.687H85.3595C85.3595 45.687 85.3175 46.086 85.3175 46.492V48.34C85.1075 48.312 84.4915 48.305 84.2745 48.34Z" fill="black"/>
<path d="M93.5915 35.481C93.9975 35.488 94.4245 35.495 94.8305 35.481C94.8305 36.363 94.3055 37.14 93.2555 37.343V37.371C94.1095 37.441 94.4525 38.099 94.4525 38.967C94.4525 40.164 94.1025 42.523 93.9485 44.84C93.8435 44.819 92.8705 44.812 92.7585 44.84C92.4645 43.629 91.6175 41.368 91.2955 40.402C90.9175 41.382 90.0775 43.391 89.6435 44.84C89.5245 44.812 88.5515 44.812 88.4465 44.84C88.3485 42.845 88.1315 40.115 87.8025 36.93C88.2015 36.944 88.6215 36.944 89.0345 36.93C89.1395 39.534 89.2445 41.249 89.3985 43.125C89.7625 41.998 90.3785 40.591 90.8545 39.072C90.9945 39.086 91.6385 39.086 91.7925 39.072C92.2195 40.682 92.7305 41.935 93.0945 43.153C93.2205 41.767 93.3745 40.122 93.3745 39.058C93.3745 38.127 92.8915 37.777 92.2265 37.777C92.0375 37.777 91.7785 37.791 91.6245 37.812C91.6385 37.693 91.6385 37.483 91.6385 37.364V36.944C93.1505 36.93 93.5915 36.713 93.5915 35.481Z" fill="black"/>
<path d="M99.712 39.1V42.579C99.712 44.084 99.712 44.357 99.803 44.84C99.327 44.826 98.984 44.826 98.494 44.84C98.585 44.357 98.585 44.007 98.585 42.579V39.079C98.585 38.015 98.158 37.609 97.353 37.609C96.667 37.609 96.107 37.994 95.897 38.211H95.799C95.785 38.071 95.729 37.861 95.505 37.252C95.911 37.021 96.709 36.797 97.402 36.797C98.872 36.797 99.712 37.455 99.712 39.1Z" fill="black"/>
<path d="M105.626 42.579V41.151H104.198C102.945 41.151 102.434 41.662 102.434 42.67C102.434 43.79 102.812 44.133 103.526 44.133C103.792 44.133 104.149 44.007 104.275 43.853H104.436C104.457 43.986 104.548 44.182 104.737 44.714C104.457 44.861 103.876 44.959 103.358 44.959C102.168 44.959 101.272 44.168 101.272 42.761C101.272 41.256 102.252 40.339 104.254 40.339H105.626V39.149C105.626 38.127 105.108 37.63 104.037 37.63C102.945 37.63 102.266 38.071 102.056 38.281H101.881C101.853 38.141 101.79 37.945 101.594 37.329C102.028 37.091 103.155 36.797 103.869 36.797C106.109 36.797 106.76 37.665 106.76 39.464V42.579C106.76 44.084 106.76 44.357 106.851 44.84C106.375 44.826 106.025 44.826 105.535 44.84C105.626 44.357 105.626 44.007 105.626 42.579Z" fill="black"/>
<path d="M111.154 36.916H113.499C113.443 38.183 113.436 38.946 113.436 40.213V43.23C113.436 44.189 112.946 44.84 112.043 44.84H110.482C110.426 44.56 110.349 44.287 110.258 44.035C109.53 42.005 108.956 40.479 108.018 38.19C108.438 38.218 108.83 38.218 109.285 38.19C109.943 40.241 110.657 42.11 111.385 44.112H111.588C111.98 44.112 112.26 43.846 112.26 43.23V40.213C112.26 39.002 112.204 37.742 112.204 37.742C112.064 37.742 111.434 37.763 111.147 37.812C111.154 37.693 111.168 37.462 111.168 37.343C111.168 37.21 111.168 37.042 111.154 36.916Z" fill="black"/>
<path d="M119.878 42.579V39.233C119.878 38.211 119.374 37.602 118.142 37.602C117.232 37.602 116.637 37.91 116.217 38.26V38.288C116.217 38.288 116.623 38.54 116.623 39.31V42.579C116.623 44.084 116.623 44.357 116.714 44.84C116.231 44.826 115.881 44.826 115.391 44.84C115.475 44.357 115.475 44.007 115.475 42.579V39.205C115.475 38.47 114.999 38.12 114.999 38.12V38.064C115.622 37.441 116.868 36.762 118.142 36.762C119.983 36.762 121.026 37.658 121.026 39.233V42.579C121.026 44.084 121.026 44.357 121.11 44.84C120.634 44.826 120.284 44.826 119.787 44.84C119.878 44.357 119.878 44.007 119.878 42.579Z" fill="black"/>
<path d="M124.862 44.133C125.772 44.133 126.213 43.503 126.213 42.677C126.213 40.605 122.747 41.935 122.747 38.953C122.747 37.609 123.805 36.804 125.366 36.804C126.052 36.804 126.828 37.098 127.178 37.364C126.905 37.931 126.779 38.106 126.716 38.337H126.556C126.388 37.889 125.905 37.623 125.282 37.623C124.407 37.623 123.882 38.127 123.882 38.869C123.882 41.081 127.346 39.716 127.346 42.544C127.346 44.147 126.289 44.945 124.707 44.945C123.888 44.945 123.147 44.623 122.685 44.252C122.853 43.839 123.098 43.426 123.126 43.244H123.286C123.601 43.755 124.134 44.133 124.862 44.133Z" fill="black"/>
<path d="M137.165 44.84L137.186 43.846C136.864 44.483 136.073 44.945 135.275 44.945C133.756 44.945 133.119 44.035 133.119 42.439V39.233C133.119 38.211 132.818 37.595 131.593 37.595C130.704 37.595 130.221 37.903 129.752 38.225V38.253C129.752 38.253 130.081 38.505 130.081 39.31V43.174C130.081 44.119 130.221 44.287 130.676 44.287C130.802 44.287 130.963 44.252 131.04 44.238L130.935 44.756C130.648 44.84 130.382 44.875 130.158 44.875C129.318 44.875 128.905 44.343 128.905 43.307C128.905 42.803 128.94 42.306 128.94 41.55V39.065C128.94 38.33 128.534 37.973 128.534 37.973V37.924C129.199 37.434 130.298 36.762 131.593 36.762C133.427 36.762 134.267 37.658 134.267 39.233V42.572C134.267 43.643 134.547 44.112 135.443 44.112C136.29 44.112 137.235 43.356 137.235 41.767V39.184C137.235 37.749 137.235 37.399 137.144 36.916C137.641 36.93 137.991 36.93 138.467 36.916C138.383 37.399 138.383 37.672 138.383 39.184V42.579C138.383 44.007 138.383 44.357 138.467 44.84C137.977 44.826 137.641 44.826 137.165 44.84Z" fill="black"/>
<path d="M139.572 35.103H138.872C138.501 35.103 138.389 35.222 138.389 35.467C138.389 35.642 138.41 35.761 138.431 35.908C138.312 35.894 137.969 35.894 137.85 35.894C137.717 35.894 137.444 35.894 137.325 35.908C137.325 35.908 137.255 35.656 137.255 35.362C137.255 34.725 137.752 34.291 138.662 34.291H139.292C139.691 34.291 139.852 34.242 139.852 34.242L139.866 34.256C139.824 34.403 139.67 34.893 139.572 35.103Z" fill="black"/>
<path d="M145.816 39.184V42.439C145.816 44.035 145.116 44.945 143.604 44.945C142.68 44.945 141.833 44.49 141.497 43.72C141.504 44.287 141.525 44.518 141.581 44.84C141.105 44.826 140.748 44.826 140.258 44.84C140.349 44.357 140.349 44.007 140.349 42.579V39.184C140.349 37.672 140.349 37.399 140.258 36.916C140.734 36.93 141.105 36.93 141.595 36.916C141.504 37.399 141.497 37.749 141.497 39.184V42.18C141.588 43.363 142.414 44.112 143.436 44.112C144.332 44.112 144.668 43.643 144.668 42.572V39.184C144.668 37.672 144.668 37.399 144.577 36.916C145.06 36.93 145.41 36.93 145.9 36.916C145.816 37.399 145.816 37.749 145.816 39.184Z" fill="black"/>
<path d="M153.099 41.158V42.579C153.099 44.084 153.099 44.357 153.183 44.84C152.707 44.826 152.357 44.826 151.86 44.84C151.951 44.357 151.951 44.007 151.951 42.579V41.025C151.951 40.038 151.51 39.674 150.789 39.674C150.635 39.674 150.509 39.688 150.39 39.723L149.06 41.13C148.941 41.249 148.934 41.27 148.934 41.585L148.941 42.579C148.948 43.958 148.969 44.483 149.018 44.84C148.542 44.826 148.192 44.826 147.702 44.84C147.793 44.357 147.793 44.007 147.793 42.579V40.213C147.793 38.946 147.751 38.183 147.695 36.916C148.157 36.93 148.577 36.93 149.039 36.916C148.983 38.183 148.941 38.554 148.941 39.821C148.941 39.884 148.976 39.898 149.011 39.898C149.06 39.898 149.095 39.856 149.151 39.807L151.692 36.916C152.112 36.923 152.616 36.937 153.043 36.916L151.125 38.946C152.357 38.995 153.099 39.772 153.099 41.158Z" fill="black"/>
<path d="M158.364 39.1V42.579C158.364 44.084 158.364 44.357 158.455 44.84C157.979 44.826 157.636 44.826 157.146 44.84C157.237 44.357 157.237 44.007 157.237 42.579V39.079C157.237 38.015 156.81 37.609 156.005 37.609C155.319 37.609 154.759 37.994 154.549 38.211H154.451C154.437 38.071 154.381 37.861 154.157 37.252C154.563 37.021 155.361 36.797 156.054 36.797C157.524 36.797 158.364 37.455 158.364 39.1Z" fill="black"/>
<path d="M161.884 44.133C163.228 44.133 163.669 43.083 163.669 41.018C163.669 38.974 163.445 37.623 161.982 37.623C161.093 37.623 160.624 37.931 160.274 38.309H160.099C160.078 38.169 159.98 38.008 159.791 37.35C160.225 37.105 161.17 36.811 161.905 36.811C164.208 36.811 164.845 38.365 164.845 40.752C164.845 43.776 164.012 44.945 161.786 44.945C161.212 44.945 160.491 44.784 160.19 44.595C160.4 44.077 160.484 43.86 160.505 43.762H160.666C160.806 43.937 161.296 44.133 161.884 44.133Z" fill="black"/>
<path d="M163.836 35.544C163.325 35.544 162.604 35.53 162.009 35.53C161.526 35.53 160.791 35.558 160.315 35.558C159.937 35.558 159.685 35.572 159.489 35.628L159.468 35.6C159.601 35.264 159.685 35.033 159.762 34.795C160.224 34.739 161.421 34.718 162.009 34.718C162.842 34.718 163.661 34.732 164.501 34.774C164.487 34.886 164.48 35.103 164.48 35.222C164.48 35.327 164.494 35.467 164.508 35.579C164.508 35.579 164.095 35.544 163.836 35.544Z" fill="black"/>
<path d="M171.956 42.579C171.956 44.084 171.956 44.357 172.04 44.84C171.564 44.826 171.214 44.826 170.717 44.84C170.808 44.357 170.808 44.007 170.808 42.579V39.219C170.808 38.141 170.472 37.672 169.576 37.672C168.554 37.672 167.728 38.421 167.637 39.597L167.644 42.579C167.644 44.084 167.644 44.357 167.735 44.84C167.259 44.826 166.888 44.826 166.398 44.84C166.489 44.357 166.489 44.007 166.489 42.579V39.205C166.489 37.693 166.489 37.427 166.398 36.937C166.874 36.951 167.231 36.951 167.721 36.937C167.672 37.259 167.644 37.525 167.637 38.071C167.973 37.308 168.82 36.846 169.744 36.846C171.256 36.846 171.956 37.756 171.956 39.352V42.579Z" fill="black"/>
<path d="M179.226 39.184V42.537C179.226 43.958 178.316 44.945 176.51 44.945C174.69 44.945 173.759 43.916 173.759 42.537V42.194C173.759 41.137 174.298 40.591 175.019 40.36V40.339C174.396 40.045 173.864 39.611 173.864 38.603C173.864 37.476 174.641 36.783 175.88 36.783C176.335 36.783 176.741 36.888 176.986 37.014C176.825 37.546 176.79 37.679 176.762 37.798H176.601C176.475 37.644 176.209 37.518 175.943 37.518C175.299 37.518 175.005 37.882 175.005 38.687C175.005 39.541 175.446 40.038 176.279 40.038C176.447 40.038 176.895 40.024 176.895 40.024C176.888 40.143 176.888 40.283 176.888 40.402C176.888 40.514 176.888 40.675 176.895 40.78C176.895 40.78 176.482 40.759 176.216 40.759C175.369 40.759 174.907 41.214 174.907 42.194V42.537C174.907 43.699 175.439 44.133 176.51 44.133C177.581 44.133 178.078 43.678 178.078 42.537V39.184C178.078 37.672 178.078 37.399 177.987 36.916C178.463 36.93 178.82 36.93 179.31 36.916C179.226 37.399 179.226 37.749 179.226 39.184Z" fill="black"/>
<path d="M184.491 39.1V42.579C184.491 44.084 184.491 44.357 184.582 44.84C184.106 44.826 183.763 44.826 183.273 44.84C183.364 44.357 183.364 44.007 183.364 42.579V39.079C183.364 38.015 182.937 37.609 182.132 37.609C181.446 37.609 180.886 37.994 180.676 38.211H180.578C180.564 38.071 180.508 37.861 180.284 37.252C180.69 37.021 181.488 36.797 182.181 36.797C183.651 36.797 184.491 37.455 184.491 39.1Z" fill="black"/>
<path d="M190.405 42.579V41.151H188.977C187.724 41.151 187.213 41.662 187.213 42.67C187.213 43.79 187.591 44.133 188.305 44.133C188.571 44.133 188.928 44.007 189.054 43.853H189.215C189.236 43.986 189.327 44.182 189.516 44.714C189.236 44.861 188.655 44.959 188.137 44.959C186.947 44.959 186.051 44.168 186.051 42.761C186.051 41.256 187.031 40.339 189.033 40.339H190.405V39.149C190.405 38.127 189.887 37.63 188.816 37.63C187.724 37.63 187.045 38.071 186.835 38.281H186.66C186.632 38.141 186.569 37.945 186.373 37.329C186.807 37.091 187.934 36.797 188.648 36.797C190.888 36.797 191.539 37.665 191.539 39.464V42.579C191.539 44.084 191.539 44.357 191.63 44.84C191.154 44.826 190.804 44.826 190.314 44.84C190.405 44.357 190.405 44.007 190.405 42.579Z" fill="black"/>
<path d="M189.375 33.976C189.284 34.207 189.249 34.375 189.249 34.536C189.249 34.732 189.403 34.795 189.648 34.795C190.047 34.802 190.306 34.809 190.663 34.809C191.146 34.809 191.811 34.781 192.287 34.781C192.665 34.781 192.91 34.76 193.113 34.704L193.134 34.732C193.05 34.956 192.931 35.313 192.84 35.558C192.378 35.607 191.251 35.628 190.663 35.628C190.075 35.628 189.585 35.628 189.207 35.572C188.654 35.495 188.304 35.159 188.304 34.613C188.304 34.361 188.353 34.095 188.444 33.962C188.682 33.983 189.13 33.997 189.375 33.976Z" fill="black"/>
<path d="M198.818 39.184V42.537C198.818 43.958 197.908 44.945 196.102 44.945C194.282 44.945 193.351 43.916 193.351 42.537V42.194C193.351 41.137 193.89 40.591 194.611 40.36V40.339C193.988 40.045 193.456 39.611 193.456 38.603C193.456 37.476 194.233 36.783 195.472 36.783C195.927 36.783 196.333 36.888 196.578 37.014C196.417 37.546 196.382 37.679 196.354 37.798H196.193C196.067 37.644 195.801 37.518 195.535 37.518C194.891 37.518 194.597 37.882 194.597 38.687C194.597 39.541 195.038 40.038 195.871 40.038C196.039 40.038 196.487 40.024 196.487 40.024C196.48 40.143 196.48 40.283 196.48 40.402C196.48 40.514 196.48 40.675 196.487 40.78C196.487 40.78 196.074 40.759 195.808 40.759C194.961 40.759 194.499 41.214 194.499 42.194V42.537C194.499 43.699 195.031 44.133 196.102 44.133C197.173 44.133 197.67 43.678 197.67 42.537V39.184C197.67 37.672 197.67 37.399 197.579 36.916C198.055 36.93 198.412 36.93 198.902 36.916C198.818 37.399 198.818 37.749 198.818 39.184Z" fill="black"/>
</svg>
